HIERARCHY
ROOT Hips
{
	OFFSET 0.000000 0.000000 0.000000
	CHANNELS 6 Xposition Yposition Zposition Yrotation Xrotation Zrotation
	JOINT Chest
	{
		OFFSET 0.000000 -0.009281 11.569106
		CHANNELS 3 Yrotation Xrotation Zrotation
		JOINT Chest2
		{
			OFFSET -0.000000 0.016865 9.269641
			CHANNELS 3 Yrotation Xrotation Zrotation
			JOINT Chest3
			{
				OFFSET -0.000000 0.000001 8.374491
				CHANNELS 3 Yrotation Xrotation Zrotation
				JOINT Chest4
				{
					OFFSET -0.000000 0.000001 8.374493
					CHANNELS 3 Yrotation Xrotation Zrotation
					JOINT Neck
					{
						OFFSET -0.000000 0.000002 12.152554
						CHANNELS 3 Yrotation Xrotation Zrotation
						JOINT Head
						{
							OFFSET -0.000000 0.040101 7.802319
							CHANNELS 3 Yrotation Xrotation Zrotation
							End Site
							{
								OFFSET -0.000000 0.020947 14.853096
							}
						}
					}
					JOINT RightCollar
					{
						OFFSET 2.894404 0.000001 6.791374
						CHANNELS 3 Yrotation Xrotation Zrotation
						JOINT RightShoulder
						{
							OFFSET 13.574684 0.000001 0.000000
							CHANNELS 3 Yrotation Xrotation Zrotation
							JOINT RightElbow
							{
								OFFSET 23.923903 0.000002 0.000000
								CHANNELS 3 Yrotation Xrotation Zrotation
								JOINT RightWrist
								{
									OFFSET 19.846718 0.012767 0.000000
									CHANNELS 3 Yrotation Xrotation Zrotation
									End Site
									{
										OFFSET 14.973145 0.000001 0.000000
									}
								}
							}
						}
					}
					JOINT LeftCollar
					{
						OFFSET -2.894404 0.000001 6.791374
						CHANNELS 3 Yrotation Xrotation Zrotation
						JOINT LeftShoulder
						{
							OFFSET -13.574684 -0.000001 0.000000
							CHANNELS 3 Yrotation Xrotation Zrotation
							JOINT LeftElbow
							{
								OFFSET -23.923903 -0.000002 0.000000
								CHANNELS 3 Yrotation Xrotation Zrotation
								JOINT LeftWrist
								{
									OFFSET -19.846718 0.012763 0.000000
									CHANNELS 3 Yrotation Xrotation Zrotation
									End Site
									{
										OFFSET -14.973145 -0.000001 0.000000
									}
								}
							}
						}
					}
				}
			}
		}
	}
	JOINT RightHip
	{
		OFFSET 9.469263 0.004643 0.045487
		CHANNELS 3 Yrotation Xrotation Zrotation
		JOINT RightKnee
		{
			OFFSET 0.000000 0.002661 -40.478676
			CHANNELS 3 Yrotation Xrotation Zrotation
			JOINT RightAnkle
			{
				OFFSET 0.000000 0.049106 -35.224068
				CHANNELS 3 Yrotation Xrotation Zrotation
				JOINT RightToe
				{
					OFFSET -0.000001 12.539529 -6.151390
					CHANNELS 3 Yrotation Xrotation Zrotation
					End Site
					{
						OFFSET -0.000001 5.044994 -1.291870
					}
				}
			}
		}
	}
	JOINT LeftHip
	{
		OFFSET -9.469263 0.004641 0.045487
		CHANNELS 3 Yrotation Xrotation Zrotation
		JOINT LeftKnee
		{
			OFFSET 0.000000 0.002661 -40.478676
			CHANNELS 3 Yrotation Xrotation Zrotation
			JOINT LeftAnkle
			{
				OFFSET 0.000000 0.049106 -35.224068
				CHANNELS 3 Yrotation Xrotation Zrotation
				JOINT LeftToe
				{
					OFFSET -0.000001 12.539529 -6.151390
					CHANNELS 3 Yrotation Xrotation Zrotation
					End Site
					{
						OFFSET -0.000001 5.044994 -1.291870
					}
				}
			}
		}
	}
}
MOTION
Frames: 8
Frame Time: 0.016667
25.014421 6.398207 82.339348 -2.935661 -7.528941 -163.671113 0.102446 -3.551237 -3.357711 0.036827 -1.682514 -1.341765 0.036827 -1.682515 -1.341766 0.023924 -1.261974 -1.006151 2.259858 -22.391860 -11.522430 0.973393 -5.754420 -20.184384 6.331083 4.922565 -17.353381 55.565337 20.430993 3.006224 -3.811243 -22.714428 5.169334 -31.715403 14.676758 33.441747 -10.430673 -6.441092 -22.998552 -73.861317 -5.982912 -30.988900 -20.728115 0.327009 -19.674565 17.758912 22.792813 -18.616493 -0.102908 -3.775965 2.807453 1.350268 -15.792852 5.443142 -2.361487 11.544558 1.652722 0.145100 -0.127300 -0.542548 14.442698 7.911524 11.837765 -7.888388 -11.234620 16.811565 -7.066944 -13.886841 2.775130 -0.079037 -0.858741 0.964484 
25.202438 6.194762 82.330627 -2.884554 -7.440613 -163.641005 0.150662 -3.451464 -3.497855 0.064097 -1.648350 -1.382005 0.064097 -1.648351 -1.382006 0.044341 -1.236416 -1.036259 2.161890 -22.360509 -11.443868 0.813857 -5.703835 -20.070828 6.297838 5.027251 -17.373476 54.903516 21.356400 2.859290 -3.426995 -21.119167 4.634470 -29.467448 13.488786 32.158501 -10.360801 -6.434181 -22.986382 -73.355091 -6.491164 -31.289206 -20.788908 -1.426628 -19.479785 18.713791 20.363514 -18.460381 -0.153604 -3.907075 2.787190 1.341465 -15.721784 5.430004 -2.450564 11.728622 1.642090 0.179562 -0.118258 -0.560703 14.399096 7.984086 11.806196 -7.909480 -11.643321 16.580409 -6.978928 -13.103956 2.779201 -0.097353 -0.948038 1.009526 
25.407957 5.979081 82.324478 -2.830952 -7.320432 -163.555751 0.205717 -3.321877 -3.692671 0.094967 -1.612660 -1.426856 0.094967 -1.612661 -1.426858 0.067455 -1.209725 -1.069820 2.043669 -22.324601 -11.352244 0.620791 -5.646538 -19.939503 6.232795 5.179068 -17.364791 54.155993 22.389650 2.726817 -2.999875 -19.309039 4.082603 -26.882520 11.890524 30.557279 -10.317127 -6.391670 -22.949229 -72.710137 -7.184368 -31.654870 -20.977471 -2.843610 -19.423110 19.562806 18.554511 -18.005328 -0.226326 -4.049784 2.702798 1.335276 -15.602469 5.455765 -2.547009 11.906875 1.590502 0.217633 -0.110940 -0.563977 14.317218 8.074279 11.746156 -7.912303 -12.024645 16.350339 -6.883118 -12.288269 2.738570 -0.099373 -1.054864 1.077953 
25.641169 5.736983 82.323662 -2.792812 -7.221027 -163.494470 0.252391 -3.215505 -3.843994 0.123146 -1.573698 -1.465544 0.123146 -1.573698 -1.465545 0.088580 -1.180577 -1.098772 1.929696 -22.294899 -11.265035 0.435047 -5.600388 -19.814741 6.127090 5.403288 -17.368398 53.425231 23.434427 2.598097 -2.552900 -17.085493 3.454142 -24.589569 10.340284 28.810554 -10.277579 -6.326541 -22.932473 -72.038955 -8.137360 -31.995270 -21.041224 -3.955141 -19.567350 20.282187 16.198579 -17.620438 -0.324864 -4.266375 2.609329 1.322812 -15.424474 5.563156 -2.638831 12.077961 1.507864 0.244000 -0.108499 -0.576841 14.222665 8.092241 11.708636 -7.949092 -12.360681 16.244949 -6.736780 -11.497583 2.655454 -0.090172 -1.130314 1.119437 
25.892832 5.468554 82.328262 -2.760779 -7.126769 -163.452820 0.289578 -3.111060 -3.948510 0.145060 -1.531447 -1.496310 0.145060 -1.531447 -1.496311 0.105039 -1.148949 -1.121803 1.831860 -22.278878 -11.188778 0.277233 -5.578058 -19.704676 6.002124 5.690984 -17.370938 52.750968 24.431769 2.459637 -2.233275 -14.710472 2.821653 -23.342614 9.093671 27.188382 -10.208931 -6.303118 -22.945363 -71.379828 -9.072938 -32.428294 -20.950120 -5.234065 -19.738379 21.139029 12.734543 -17.637195 -0.454909 -4.536379 2.526631 1.313734 -15.196379 5.693930 -2.716369 12.240393 1.408593 0.264367 -0.099705 -0.588790 14.132687 8.067243 11.691598 -8.023994 -12.682753 16.296203 -6.573792 -10.705619 2.475334 -0.053635 -1.190808 1.162364 
26.173677 5.174521 82.337921 -2.741974 -7.010589 -163.352280 0.317183 -2.979504 -4.084769 0.163404 -1.484911 -1.525220 0.163404 -1.484911 -1.525221 0.118841 -1.114100 -1.143456 1.742701 -22.274316 -11.120384 0.134472 -5.576271 -19.605872 5.900099 5.803421 -17.323827 52.126651 25.634185 2.442596 -2.032631 -12.380017 2.304401 -22.239267 7.972707 25.431011 -10.134760 -6.319442 -22.943090 -70.669078 -9.906834 -33.000134 -20.651359 -7.100505 -19.870267 22.254717 8.778257 -17.872389 -0.582497 -4.840920 2.391728 1.275784 -14.920391 5.773682 -2.757761 12.408791 1.384977 0.265921 -0.091724 -0.626167 14.018080 8.051465 11.637229 -8.104592 -13.019546 16.424310 -6.459179 -9.892784 2.145413 0.028564 -1.243260 1.275240 
26.468063 4.847569 82.352219 -2.720304 -6.900995 -163.268815 0.345651 -2.849685 -4.186562 0.174850 -1.435720 -1.559745 0.174850 -1.435721 -1.559745 0.127467 -1.077245 -1.169338 1.661326 -22.267294 -11.047805 0.006412 -5.568393 -19.497499 5.820830 5.794063 -17.254557 51.389650 27.020705 2.505643 -1.661655 -9.979723 1.827573 -20.791769 6.631797 23.297599 -10.065464 -6.361583 -22.942761 -69.838158 -10.692598 -33.652205 -20.195105 -9.391200 -20.132807 23.352277 5.371900 -17.778235 -0.722964 -5.213467 2.296219 1.244243 -14.568097 5.829385 -2.784102 12.553836 1.354631 0.265087 -0.071144 -0.651180 13.902386 8.000855 11.655751 -8.160075 -13.349163 16.451161 -6.367684 -9.102156 1.909849 0.102240 -1.261035 1.360503 
26.786663 4.508525 82.369392 -2.713822 -6.733921 -163.088552 0.339981 -2.680615 -4.363237 0.179691 -1.389832 -1.600916 0.179691 -1.389832 -1.600917 0.131122 -1.042853 -1.200220 1.590413 -22.241736 -10.971491 -0.104379 -5.524385 -19.380450 5.684218 5.971496 -17.263185 50.541955 28.212235 2.522383 -1.204951 -7.245065 1.370817 -18.996655 4.844936 20.680510 -9.967043 -6.431689 -22.936622 -68.920201 -11.497277 -34.392752 -19.638877 -11.710017 -20.702162 24.148276 2.595199 -17.085189 -0.902989 -5.589362 2.120205 1.231511 -14.152523 5.848043 -2.778435 12.681847 1.371052 0.242419 -0.041019 -0.681671 13.721084 8.006340 11.645078 -8.176087 -13.670471 16.314359 -6.323824 -8.302933 1.737217 0.189559 -1.278010 1.479666 
